<svg width="441" height="261" viewBox="0 0 441 261" fill="none" xmlns="http://www.w3.org/2000/svg">
<path d="M439.586 86.3734C433.358 88.875 427.131 91.3767 420.904 93.8784C416.299 95.7217 411.694 97.565 407.046 99.2767C405.818 99.7156 405.204 100.242 405.292 101.603C405.423 103.578 405.292 105.553 405.423 107.528C405.555 111.127 404.458 114.243 401.696 116.525C396.389 120.87 390.513 124.206 383.321 123.284C378.979 122.713 375.076 120.738 371.875 117.666C370.471 116.306 369.243 116.393 367.577 117.183C363.542 119.202 359.376 120.958 355.298 122.889C349.728 125.478 344.203 128.156 338.589 130.613C325.345 136.451 312.058 142.156 298.858 147.993C289.517 152.119 280.263 156.552 270.922 160.677C266.055 162.828 261.055 164.759 256.056 166.514C254.302 167.129 254.039 168.007 253.951 169.674C253.6 176.082 253.03 182.446 252.504 189.073C248.294 189.073 244.434 189.073 240.575 189.073C237.944 189.073 237.286 189.6 237.856 192.189C238.558 195.437 239.216 198.904 240.838 201.757C246.101 211.193 245.268 220.498 240.707 229.671C235.751 239.677 230.489 249.552 225.358 259.515C225.095 260.042 224.876 260.568 224.656 261.095H223.779C220.359 255.609 216.894 250.079 213.473 244.593C208.606 236.693 204.483 228.486 203.036 219.225C202.071 212.861 202.773 206.804 207.246 201.713C207.904 200.923 208.474 200.089 209.088 199.256C211.763 195.701 211.851 195.393 211.325 190.478C209.22 190.39 207.071 190.302 204.922 190.171C201.194 189.907 197.511 189.6 193.783 189.337C192.511 189.249 192.116 188.678 192.029 187.406C191.809 182.227 191.459 177.048 191.239 171.869C191.196 170.552 190.669 169.982 189.529 169.455C166.155 159.097 143.044 148.125 119.362 138.513C107.083 133.51 95.6373 126.488 82.7003 123.064C79.6744 122.274 76.9554 120.256 74.1049 118.763C71.2982 117.315 70.6843 117.271 68.5793 119.553C65.8603 122.45 62.4397 123.372 58.7121 123.679C53.1426 124.162 47.7924 123.196 42.793 120.651C36.8288 117.578 33.9783 112.004 35.1185 105.377C35.4694 103.227 34.8993 102.173 33.0135 101.339C23.4972 97.0384 14.0247 92.6495 4.50833 88.3045C3.32427 87.7778 2.18406 87.1195 1 86.505C1 86.0661 1 85.6272 1 85.1883C1.30698 84.3106 1.65781 83.4328 1.87708 82.555C3.76281 74.4356 5.69239 66.3161 7.49041 58.1967C7.8851 56.485 8.71833 55.8706 10.2971 55.9145C13.2353 55.9145 16.1297 56.0022 19.0679 56.0022C26.7862 56.0022 34.5484 56.09 42.2668 55.9145C44.1963 55.9145 45.4681 56.3534 46.0382 58.1089C46.8276 60.4789 47.3539 62.8928 48.0117 65.2628C48.2748 66.3161 48.4941 67.4133 48.7133 68.4667C49.0642 66.6233 49.0203 64.8678 49.0642 63.1561C49.0642 61.4884 48.9764 59.7767 49.1957 58.1089C49.5904 54.9928 49.8535 54.905 52.9672 55.2122C53.7566 55.3 54.5898 55.3439 55.3792 55.3439C65.1148 55.4756 74.8066 55.5195 84.5422 55.695C88.7083 55.7828 88.9715 55.9583 90.1555 59.9961C90.9449 62.6295 91.3834 65.3506 91.9974 68.0278C92.6991 66.3161 92.9183 64.5606 93.0938 62.805C93.2692 60.7861 93.313 58.7233 93.6638 56.7045C93.7954 56.0461 94.8041 55.1245 95.418 55.1245C104.013 55.1683 112.653 55.3878 121.248 55.5633C124.186 55.6511 127.081 56.0022 129.975 56.0022C132.694 56.0022 133.615 57.275 133.834 59.8206C134.01 62.0589 134.58 64.2972 134.974 66.4917C135.194 66.4917 135.413 66.4917 135.676 66.4917C136.115 65.1311 136.641 63.7706 136.992 62.3661C138.702 56.0022 138.658 55.8267 145.324 55.695C154.139 55.5195 162.997 55.5634 171.856 55.6511C172.864 55.6511 174.049 56.3533 174.882 57.0556C176.943 58.8111 176.943 61.4445 177.25 63.9022C177.469 65.4822 177.688 67.0622 177.864 68.6861C179.048 65.8333 179.662 62.9806 180.451 60.2156C181.591 56.0461 182.03 55.5634 186.328 55.4317C196.546 55.1684 206.764 55.1684 216.982 54.9928C218.297 54.9928 218.736 55.5195 219.043 56.7045C219.569 58.855 220.227 60.9617 220.841 63.1122H221.411C221.674 61.0056 222.025 58.9867 222.2 56.9239C222.332 55.3878 223.077 54.7295 224.569 54.6856C236.278 54.3345 247.943 53.9833 259.564 56.0022C261.625 56.3533 262.327 57.1872 262.371 59.25C262.371 62.0589 262.809 64.8239 263.029 67.5889C263.379 67.5889 263.686 67.5889 264.037 67.5889C264.213 65.57 264.52 63.5072 264.564 61.4883C264.651 57.1872 266.844 55.0367 271.01 54.9489C276.93 54.8611 282.851 54.3345 288.727 54.5539C293.332 54.7295 297.937 55.6511 302.541 56.485C303.462 56.6606 304.427 57.9772 304.822 58.9867C305.655 61.2689 306.181 63.6828 306.795 66.0089C306.971 66.0089 307.19 66.0089 307.365 65.965C307.672 63.7706 308.067 61.5761 308.242 59.3817C308.374 57.5384 309.251 56.5728 310.961 56.2217C313.11 55.7828 315.259 55.0367 317.408 54.9928C325.433 54.8172 333.458 54.905 341.484 54.905C345.562 54.905 346.483 55.6511 347.667 59.6889C347.974 60.6545 348.15 61.6639 348.325 62.6734C348.676 64.6045 349.027 66.5795 349.378 68.5106C349.948 67.8961 350.079 67.3256 350.167 66.7111C350.649 64.1217 351 61.4884 351.57 58.9428C352.184 56.2656 353.719 54.9489 355.999 54.9489C366.875 54.9489 377.795 54.9489 388.671 54.8611C390.206 54.8611 390.907 55.3439 391.214 56.88C391.697 59.25 392.355 61.62 392.925 63.99H393.495C394.196 61.5322 395.03 59.1183 395.644 56.6606C395.994 55.3 396.652 54.7734 398.056 54.7734C408.712 54.7734 419.369 54.6856 430.069 54.5978C431.823 54.5978 432.92 55.2122 433.358 57.0556C434.323 61.3128 435.419 65.57 436.428 69.8272C437.524 74.5233 438.489 79.2195 439.542 83.9156V86.5489L439.586 86.3734ZM308.374 87.7778C307.584 87.69 307.234 87.6022 306.883 87.6022C294.472 87.6022 282.061 87.6461 269.651 87.5145C267.107 87.5145 265.967 88.48 264.871 90.5867C253.03 113.321 243.163 136.889 233.471 160.589C233.296 161.028 233.252 161.511 233.12 162.038C237.111 162.696 240.619 162.433 243.426 159.185C244.566 157.868 246.057 156.859 247.417 155.806C264.607 142.771 281.754 129.736 299.033 116.788C300.831 115.428 301.401 114.287 300.919 111.917C298.989 103.183 300.743 95.3706 307.321 88.9628C307.628 88.6556 307.891 88.3484 308.418 87.7339L308.374 87.7778ZM207.685 162.521C207.553 161.906 207.509 161.467 207.334 161.116C196.765 137.109 186.196 113.102 175.627 89.0945C175.101 87.8656 174.268 87.6461 173.084 87.6461C160.015 87.6461 146.947 87.6461 133.878 87.6461C133.308 87.6461 132.694 87.7339 132.124 87.8217L131.817 88.4361C132.606 89.0945 133.44 89.665 134.185 90.3672C137.606 93.6589 140.193 97.5211 141.333 102.217C142.342 106.431 142.342 110.468 139.009 113.979C141.509 115.867 143.701 117.578 145.894 119.246C153.963 125.303 162.383 130.964 169.97 137.548C176.11 142.858 182.556 147.467 189.529 151.504C192.862 153.436 195.888 155.806 199.002 158.088C201.633 160.019 204.133 162.126 207.772 162.564L207.685 162.521ZM233.339 88.0411C233.734 88.5239 233.997 89.0067 234.392 89.3578C241.145 95.6339 240.97 107.396 236.541 114.331C231.454 122.318 221.937 126.005 213.123 123.24C202.861 120.036 197.642 110.556 199.923 99.6717C200.975 94.6245 203.212 90.6306 208.342 88.7872C208.649 88.6995 208.913 88.4361 209.57 87.9972H184.179C184.53 89.0506 184.793 89.7089 185.012 90.4111C193.607 113.277 203.738 135.485 214.438 157.473C216.543 161.774 218.78 163.574 223.428 162.608C224.919 162.301 225.665 161.906 226.235 160.502C228.866 153.831 231.454 147.159 234.348 140.62C241.716 123.986 249.916 107.703 255.924 90.4989C256.187 89.7528 256.407 89.0067 256.626 88.3045C253.118 87.0756 236.892 86.9439 233.339 88.1289V88.0411ZM65.5533 87.7778C65.6849 88.3045 65.6849 88.3922 65.7287 88.4361C66.3866 89.0067 67.0882 89.5772 67.746 90.1478C73.4471 95.0195 75.7714 101.208 74.5873 108.581C74.2803 110.6 74.7627 111.346 76.5607 112.136C114.363 128.551 152.121 145.053 189.88 161.555C190.406 161.774 191.02 161.95 191.546 162.126C190.889 161.116 190.055 160.414 189.134 159.843C185.933 157.824 182.688 155.893 179.574 153.787C174.224 150.1 168.874 146.413 163.655 142.551C156.2 137.065 148.438 131.93 142.035 125.083C140.807 123.767 139.184 122.801 137.737 121.704C135.632 120.08 133.483 119.817 131.291 121.484C127.037 124.776 122.344 124.82 117.345 123.723C109.232 121.967 103.487 116.481 102.215 108.362C101.733 105.377 101.821 102.173 102.391 99.2328C102.917 96.5995 102.259 95.0634 100.11 93.8345C99.0141 93.22 98.0493 92.4739 96.9091 91.9472C86.9542 87.3389 76.3415 87.8656 65.5533 87.9095V87.7778ZM254.959 158.834C255.091 159.009 255.179 159.185 255.31 159.404C258.687 157.956 262.108 156.464 265.528 155.059C275.922 150.802 286.403 146.721 296.709 142.244C307.541 137.504 318.241 132.457 328.941 127.409C341.352 121.572 353.675 115.559 366.086 109.634C367.445 108.976 367.752 108.23 367.445 106.738C366.086 99.8033 368.059 93.8783 373.059 88.9628C373.541 88.48 374.024 87.9533 374.813 87.1195C365.077 87.0317 355.78 86.7245 346.966 90.3233C345.036 91.1133 343.326 92.4739 341.615 93.6589C339.291 95.2828 338.107 97.3895 338.721 100.374C338.984 101.691 338.809 103.139 338.765 104.543C338.326 116.92 326.486 125.303 317.496 123.635C314.908 123.152 312.365 122.099 309.865 121.089C308.593 120.563 307.628 120.519 306.444 121.353C290.262 133.027 274.08 144.658 257.898 156.332C256.845 157.078 255.924 158.044 254.959 158.878V158.834ZM431.779 79.9217C430.595 73.9967 429.411 68.4228 428.447 62.805C428.14 61.0495 427.394 60.7422 425.859 60.7861C418.316 60.83 410.817 60.7861 403.274 60.7861C400.555 60.7861 399.985 61.2689 399.547 63.99C398.889 68.3789 398.319 72.8117 397.661 77.2445C397.266 79.8778 397.398 80.0534 399.985 80.0534C409.765 80.0534 419.588 80.0534 429.368 80.0534C430.025 80.0534 430.639 79.9656 431.779 79.9217ZM302.848 80.6678C302.848 79.1756 302.98 78.3856 302.848 77.6395C301.883 72.9872 300.743 68.3789 299.822 63.7267C299.515 62.2783 298.945 61.8395 297.498 61.8833C289.604 61.9272 281.754 61.9272 273.861 61.8833C272.413 61.8833 271.668 62.3661 271.492 63.7706C270.922 68.3789 270.221 73.0311 269.782 77.6395C269.475 80.4922 269.651 80.6239 272.413 80.6239C282.456 80.6678 292.542 80.6239 302.892 80.6239L302.848 80.6678ZM88.5768 80.6678C87.5243 74.6989 86.5156 69.4761 84.2352 64.5167C83.5335 62.9806 82.6126 62.2345 80.9461 62.2345C73.4471 62.2345 65.9042 62.2345 58.4051 62.1467C57.0895 62.1467 56.6509 62.6733 56.4755 63.9022C55.9054 67.5011 55.1599 71.1 54.5898 74.6989C54.2828 76.5422 54.1512 78.3856 53.8881 80.7117H88.5768V80.6678ZM388.013 80.1411C388.013 79.0439 388.145 78.0784 388.013 77.2006C387.311 72.68 386.478 68.1156 385.82 63.595C385.601 62.1028 384.987 61.62 383.584 61.6639C375.339 61.7517 367.095 61.7956 358.894 61.9711C358.324 61.9711 357.447 62.7172 357.315 63.2439C356.263 68.2472 355.385 73.2945 354.465 78.2978C354.158 79.9217 354.815 80.4922 356.482 80.4484C364.814 80.3167 373.103 80.2728 381.435 80.185C383.54 80.185 385.645 80.185 388.057 80.185L388.013 80.1411ZM259.52 80.6678C258.38 74.7867 257.371 69.6078 256.451 64.4728C256.1 62.6295 255.179 62.015 253.337 62.015C245.619 62.015 237.856 62.015 230.138 61.8833C228.603 61.8833 228.121 62.4978 227.945 63.9022C227.331 68.7739 226.717 73.6017 225.972 78.4295C225.709 80.2728 226.41 80.6678 228.077 80.6678C236.014 80.6239 243.996 80.6678 251.934 80.6678C254.258 80.6678 256.582 80.6678 259.52 80.6678ZM97.1722 80.7117C97.7423 80.7995 98.0493 80.9311 98.3124 80.9311C107.785 80.8434 117.257 80.6678 126.774 80.58C131.817 80.5361 131.861 80.4483 130.677 75.5328C129.756 71.6267 128.923 67.7206 127.87 63.8583C127.695 63.2878 126.774 62.5417 126.16 62.4978C122.388 62.2345 118.573 61.9711 114.802 62.0589C110.592 62.1028 106.382 62.4539 102.172 62.805C100.374 62.9367 99.3649 64.0778 99.2333 66.0089C99.0579 68.0278 98.7071 70.0467 98.4001 72.0656C98.0054 74.9183 97.5669 77.7711 97.1722 80.7117ZM310.83 79.9217H345.124C344.466 74.3039 344.115 68.7739 341.966 63.595C341.747 63.0684 340.914 62.41 340.387 62.41C332.099 62.2345 323.767 62.1906 315.478 62.1906C314.996 62.1906 314.163 62.9806 314.031 63.5511C313.286 66.7111 312.672 69.9589 312.058 73.1628C311.619 75.3572 311.268 77.5517 310.83 79.9656V79.9217ZM199.528 80.58C199.528 80.58 199.528 80.5361 199.528 80.4922C204.264 80.4922 209 80.4045 213.737 80.4922C215.71 80.4922 216.368 79.8339 215.973 77.9028C214.921 73.2067 213.868 68.5106 212.903 63.8145C212.596 62.3222 211.719 61.8395 210.272 61.8395C203.782 61.8834 197.291 61.8395 190.801 61.9711C186.021 62.0589 186.021 62.1906 185.144 66.7989C184.442 70.3978 183.653 73.9528 183.083 77.5517C182.644 80.2728 182.995 80.5361 185.582 80.5361C190.231 80.5361 194.923 80.5361 199.572 80.5361L199.528 80.58ZM173.698 80.7117C172.645 75.0061 171.768 70.0028 170.716 65.0433C170.277 63.0683 168.918 62.1028 166.681 62.1467C159.664 62.1906 152.692 62.0589 145.675 62.1028C144.973 62.1028 143.789 62.8489 143.658 63.4633C142.298 68.4667 141.114 73.47 139.93 78.5172C139.579 80.0095 140.325 80.58 141.86 80.58C144.973 80.58 148.131 80.7117 151.288 80.7117C158.48 80.7117 165.716 80.7117 173.742 80.7117H173.698ZM11.5688 80.6678H44.8103C44.8103 79.9217 44.898 79.6145 44.8103 79.3511C43.1877 74.0406 41.5651 68.73 39.7671 63.5072C39.5478 62.8928 38.4076 62.2784 37.6621 62.2345C35.6886 62.1028 33.7152 62.2345 31.7418 62.2345C26.26 62.2784 20.7782 62.3661 15.3403 62.41C14.1562 62.41 13.4107 62.7172 13.2792 64.0778C12.7529 69.6078 12.1389 75.0939 11.5688 80.6239V80.6678ZM398.275 103.314C398.099 101.866 398.143 100.418 397.793 99.1011C395.819 92.3422 389.943 88.1289 382.4 90.4989C379.9 91.2889 377.093 92.9128 375.646 95.0195C372.489 99.5839 372.226 104.894 374.287 110.117C376.83 116.569 385.119 119.29 391.171 115.954C396.258 113.146 397.749 108.493 398.275 103.271V103.314ZM133.878 105.992C133.878 105.684 133.878 105.421 133.878 105.114C133.44 99.6278 132.212 94.6683 126.028 92.9128C124.844 92.5617 123.792 91.8156 122.651 91.3767C119.889 90.3233 116.95 90.7183 115.109 92.6933C112.609 95.3706 110.328 98.4867 108.794 101.778C106.294 107.221 108.794 112.707 114.144 115.296C117.696 116.964 121.336 117.315 125.239 116.525C131.028 115.296 133.878 112.004 133.878 106.036V105.992ZM41.7844 104.982C42.0475 110.381 44.2841 113.584 47.9678 115.735C49.3711 116.569 51.1253 117.491 52.5725 117.315C57.6157 116.701 62.1327 114.638 65.7287 110.995C66.4743 110.249 66.8251 109.02 67.1759 107.967C68.1846 104.982 66.7813 102.305 66.2112 99.4522C65.2025 94.405 61.9573 92.0789 57.1772 91.3328C51.7831 90.455 45.819 92.9128 44.1086 97.1261C42.9684 99.935 42.3983 102.963 41.8282 104.982H41.7844ZM207.115 103.007C206.983 106.694 207.685 110.117 210.228 112.97C214.482 117.71 221.104 118.105 227.068 113.979C234.173 109.064 234.523 99.7156 227.726 94.2733C223.384 90.7622 218.911 90.3233 213.693 92.6495C208.43 95.0195 207.29 96.0289 207.071 101.866C207.071 102.217 207.071 102.612 207.071 102.963L207.115 103.007ZM331.792 104.061C331.792 99.935 329.38 95.4583 324.775 92.2106C320.214 88.9628 313.636 89.8845 310.128 94.0978C304.559 100.769 307.014 112.531 314.82 116.349C315.654 116.744 316.794 116.92 317.715 116.744C319.995 116.349 322.276 115.735 324.512 115.121C329.512 113.76 331.748 110.776 331.792 104.017V104.061ZM245.794 181.349C245.794 177.487 245.75 174.458 245.794 171.386C245.794 169.85 245.268 169.279 243.733 169.367C238.646 169.587 233.515 169.762 228.428 169.938C220.139 170.201 211.851 170.421 203.562 170.772C202.729 170.772 201.501 171.693 201.238 172.439C200.58 174.195 200.317 176.126 199.923 177.969C199.352 180.954 199.484 181.129 202.554 181.437C202.992 181.481 203.431 181.568 203.869 181.524C213.035 181.437 222.244 181.349 231.41 181.305C235.971 181.305 240.575 181.305 245.75 181.305L245.794 181.349ZM223.998 218.83C228.165 218.523 231.936 218.216 235.751 217.996C237.506 217.864 238.295 217.031 238.514 215.275C238.865 212.554 238.426 210.052 236.848 207.77C233.164 202.416 223.341 198.861 217.069 200.836C215.885 201.187 214.745 202.108 214 203.074C212.816 204.522 211.719 206.19 211.018 207.902C210.141 210.184 209.614 212.598 209.132 215.012C208.825 216.416 209.57 217.294 211.105 217.469C215.535 217.908 219.964 218.391 224.042 218.83H223.998ZM223.998 250.254C227.594 241.257 230.971 232.743 234.436 224.009H213.298C215.885 233.226 219.087 241.828 223.998 250.254ZM43.6263 88.1728C43.5824 87.9534 43.5385 87.7778 43.4947 87.5583C37.0043 87.9533 30.5138 88.3045 24.0673 88.6995C24.0673 88.9189 23.9796 89.1383 23.9357 89.3578C26.6985 90.5867 29.4613 91.8595 32.2242 93.0883C35.9518 94.8 35.9079 94.7122 38.8023 92.035C40.2933 90.6306 42.0037 89.4456 43.6263 88.1728ZM416.606 88.1728C416.606 87.9095 416.518 87.69 416.474 87.4267H397.354C398.012 88.2167 398.406 88.7433 398.801 89.1822C401.491 92.1667 404.678 92.9274 408.361 91.4645C411.124 90.3672 413.843 89.27 416.562 88.1728H416.606ZM219.92 192.365C219.92 192.584 219.92 192.804 219.92 193.023C224.13 193.506 228.296 193.989 232.769 194.472C232.725 193.594 232.682 192.936 232.638 192.321H219.964L219.92 192.365ZM103.619 87.9095C106.996 91.3767 108.443 91.2889 110.285 87.9095H103.619ZM330.915 86.9C334.555 90.3672 336.265 90.4111 338.809 87.4706C336.265 87.295 333.897 87.1195 330.915 86.9Z" fill="white" stroke="#020D2D" stroke-miterlimit="10"/>
<path d="M319.557 0.131728C321.837 0.87784 324.205 1.44839 326.354 2.50173C328.415 3.51117 330.213 5.09117 332.187 6.45173C334.643 5.00339 335.739 1.62395 339.335 0.833953C339.335 4.82784 339.335 8.5584 339.335 12.2451C339.335 14.3517 339.379 16.5023 339.335 18.609C339.335 19.1356 338.809 19.6184 338.546 20.1451C338.019 19.8378 337.318 19.6623 337.011 19.1795C336.353 18.2139 335.958 17.0728 335.388 16.0634C332.669 11.4551 329.38 7.3734 324.468 4.95951C321.004 3.24784 317.364 2.76505 313.636 3.95005C311.049 4.74005 309.909 6.67118 309.646 9.17284C309.382 11.5428 310.742 13.2106 312.715 14.0445C315.522 15.1856 318.548 15.9317 321.486 16.7656C325.214 17.8189 329.073 18.5212 332.669 19.8378C343.326 23.7878 346.922 37.7006 339.73 46.5662C335.783 51.3939 327.933 53.3251 321.004 50.604C318.022 49.419 315.347 47.3562 312.672 45.4689C311.488 44.6351 310.742 44.5034 309.733 45.6445C308.549 47.0051 307.321 48.4095 305.962 49.5945C305.392 50.1212 304.471 50.2528 303.681 50.5162C303.506 49.8578 303.155 49.1995 303.155 48.5412C303.155 42.3967 303.155 36.2962 303.155 30.2395C304.865 29.4495 305.611 30.2395 306.225 31.5123C308.286 35.6378 310.479 39.6756 314.075 42.7478C317.89 45.9956 322.056 48.4973 327.275 48.4095C328.985 48.4095 330.783 48.1023 332.406 47.4878C336.134 45.9956 336.835 41.1678 333.634 38.7978C332.143 37.7006 330.301 36.9984 328.503 36.5156C324.556 35.4623 320.521 34.7601 316.531 33.8384C314.996 33.4873 313.461 32.8728 311.97 32.3023C305.611 30.0201 302.366 25.4117 301.927 18.7406C301.489 12.2012 303.594 6.71505 308.944 2.85283C310.874 1.44839 313.461 0.965612 315.741 0.0439453C317.057 0.0439453 318.373 0.0439453 319.688 0.0439453L319.557 0.131728ZM307.891 25.1484C307.804 25.4995 307.716 25.8067 307.628 26.1578C308.593 26.4651 309.602 26.9917 310.567 26.9917C317.627 27.0795 324.731 27.0356 331.792 26.9917C332.274 26.9917 332.801 26.8601 333.283 26.7723C333.283 26.5089 333.283 26.2456 333.327 25.9823C331.836 25.7189 330.345 25.1923 328.81 25.1923C321.837 25.1045 314.82 25.1923 307.848 25.1923L307.891 25.1484ZM313.943 29.3178C313.943 29.669 313.899 29.9762 313.856 30.3273C321.881 32.2145 330.038 30.7662 338.239 30.7662C337.581 29.9323 336.791 29.4934 336.002 29.3617C335.169 29.2301 334.248 29.3617 333.371 29.3617C326.88 29.3617 320.39 29.3617 313.943 29.3617V29.3178ZM305.392 21.2862C306.883 23.8317 309.119 22.5151 310.874 22.7345C312.847 22.954 314.908 22.7784 316.925 22.7784C313.856 20.8034 309.602 20.3645 305.392 21.2862ZM330.213 33.8384C333.02 35.8573 336.09 35.7256 339.16 35.5062C339.423 35.5062 339.861 34.8917 339.817 34.6723C339.773 34.3651 339.291 33.9262 338.984 33.9262C336.046 33.8823 333.151 33.9262 330.213 33.9262V33.8384ZM308.462 18.7406C307.891 16.5023 306.795 16.2389 304.602 18.0823C305.83 18.3017 307.058 18.5212 308.462 18.7406Z" fill="white" stroke="#020D2D" stroke-miterlimit="10"/>
<path d="M180.846 50.165C175.715 50.165 170.584 50.2089 165.497 50.0772C164.839 50.0772 163.962 49.1117 163.655 48.4095C161.243 42.3528 158.963 36.2522 156.595 30.1956C156.288 29.3617 155.63 28.7034 154.928 27.5622C154.533 28.44 154.314 28.7033 154.314 28.9667C154.314 33.7067 154.314 38.4467 154.402 43.2306C154.402 45.3811 155.674 46.6539 157.779 46.8295C159.884 47.005 160.41 47.9706 159.796 50.0333H134.185V47.1806C134.799 47.1367 135.281 47.0928 135.808 47.0489C140.105 46.8295 141.026 46.1272 141.114 41.8261C141.246 31.2928 141.289 20.7595 141.158 10.2261C141.114 5.88113 140.237 5.04723 136.027 4.82779C133.922 4.69612 133.834 3.64279 134.229 1.84335C134.931 1.75557 135.676 1.6239 136.466 1.6239C146.684 1.75557 156.945 1.79945 167.163 2.19445C174.005 2.45778 177.206 5.74946 177.82 12.5961C178.434 19.0478 176.943 24.5339 170.409 27.5183C169.97 27.6939 169.532 28.7472 169.707 29.1861C171.198 33.4433 172.514 37.8322 174.487 41.87C175.408 43.8011 177.469 45.4689 179.399 46.5661C180.977 47.4878 181.635 48.19 180.89 50.2089L180.846 50.165ZM154.226 14.9222C154.226 17.5995 154.139 20.3206 154.27 22.9978C154.27 23.6122 155.016 24.5778 155.542 24.7095C158.787 25.3678 161.813 23.6561 162.866 20.5839C164.181 16.8972 164.137 13.1228 162.866 9.43612C161.857 6.49556 159.27 4.87168 156.331 4.87168C154.84 4.87168 154.095 5.31056 154.183 7.02223C154.314 9.65556 154.183 12.2889 154.183 14.8784L154.226 14.9222Z" fill="white" stroke="#020D2D" stroke-miterlimit="10"/>
<path d="M227.901 28.5278C229.349 32.39 230.796 37.0861 232.857 41.475C233.778 43.4061 235.795 45.1617 237.725 46.215C239.479 47.1805 239.874 48.0144 239.26 50.0333C234.129 50.0333 228.954 50.0772 223.823 49.9455C223.209 49.9455 222.42 48.8044 222.113 48.0583C219.657 41.9578 217.289 35.8133 214.877 29.7128C214.57 28.9667 213.956 28.3522 213.517 27.65C213.298 27.7378 213.123 27.8255 212.903 27.9133C212.816 28.3083 212.64 28.7033 212.64 29.0983C212.64 33.4872 212.64 37.8761 212.728 42.265C212.816 45.1178 213.693 46.2589 216.368 46.5661C218.604 46.8294 218.78 47.9267 218.254 49.8578H193.037C192.248 47.2244 192.423 46.9172 194.967 46.7416C198.344 46.5661 199.44 45.6444 199.528 42.2211C199.659 35.1989 199.572 28.1767 199.572 21.1544C199.572 17.2922 199.572 13.3861 199.484 9.52388C199.352 5.57388 198.607 4.82776 194.704 4.47665C193.564 4.38888 192.423 4.47666 192.555 2.76499C192.643 1.18499 193.783 1.36054 194.792 1.36054C204.132 1.40443 213.473 1.44831 222.858 1.53609C223.077 1.53609 223.297 1.53609 223.516 1.53609C234.699 2.01887 240.312 11.9817 234.699 21.8128C233.296 24.2267 230.577 25.8944 227.901 28.4839V28.5278ZM212.728 24.095C216.982 25.28 220.271 23.6122 221.586 19.7061C222.683 16.3267 222.551 12.9033 221.586 9.56777C220.622 6.18832 217.464 4.12554 214.263 4.65221C213.737 4.73998 212.816 5.39832 212.816 5.79332C212.728 11.8939 212.772 18.0383 212.772 24.0511L212.728 24.095ZM208.343 37.9639H202.115C202.028 38.1833 201.896 38.3589 201.808 38.5783C202.422 38.9294 203.08 39.6755 203.694 39.6317C205.141 39.4561 207.115 40.6411 208.343 37.9639ZM202.291 19.9694C202.159 20.1889 202.071 20.4083 201.94 20.6278C202.51 20.9789 203.168 21.725 203.65 21.5933C205.053 21.2422 207.246 22.8661 208.079 19.9694H202.291ZM204.878 25.8944C206.062 25.4555 206.983 25.1483 207.948 24.7972C206.983 24.49 206.018 24.0072 205.01 23.9633C204.045 23.9633 203.08 24.3583 202.115 24.5778C203.036 25.0166 203.957 25.4555 204.878 25.8505V25.8944ZM205.053 28.6155C203.957 29.1422 203.08 29.5811 202.159 30.02C203.168 30.3272 204.133 30.8539 205.141 30.8539C206.062 30.8539 207.027 30.3272 207.948 30.02C207.027 29.5811 206.15 29.1422 205.053 28.6155ZM201.545 33.4872C202.334 34.365 202.641 35.0672 203.036 35.1111C204.396 35.2428 205.799 35.1989 207.158 35.1111C207.465 35.1111 207.729 34.6283 207.992 34.365C207.641 34.0578 207.334 33.575 206.983 33.5311C205.404 33.4433 203.826 33.5311 201.545 33.5311V33.4872ZM204.878 17.2922C205.448 17.2922 206.062 17.38 206.632 17.2922C207.115 17.1605 207.509 16.7655 207.904 16.5022C207.509 16.195 207.115 15.7561 206.632 15.6683C205.843 15.4928 205.01 15.405 204.22 15.5367C203.475 15.6683 202.817 16.1072 202.115 16.3705C202.817 16.6778 203.475 17.0289 204.176 17.2922C204.352 17.38 204.615 17.2922 204.834 17.2922H204.878ZM208.036 11.6305C207.948 11.455 207.86 11.2794 207.772 11.1039C206.983 11.1039 206.194 11.1039 205.404 11.1039C204.615 11.1039 203.782 11.06 202.992 11.1478C202.685 11.1478 202.378 11.5866 202.071 11.85C202.378 12.1572 202.685 12.7278 203.036 12.7717C204.352 12.8594 205.667 12.9033 206.983 12.7717C207.378 12.7717 207.685 12.0694 208.036 11.6744V11.6305ZM204.79 44.1522C205.843 43.6255 206.764 43.1867 207.641 42.7478C206.676 42.4405 205.711 41.9578 204.703 41.9139C203.826 41.9139 202.992 42.4405 202.115 42.7478C202.948 43.1867 203.738 43.6255 204.79 44.1522ZM201.808 7.06609C201.94 7.68054 202.028 8.16332 202.115 8.16332C203.957 8.29498 205.799 8.33887 207.597 8.38276C207.685 8.38276 207.948 7.85609 207.86 7.68054C207.729 7.4172 207.378 7.10998 207.115 7.06609C205.404 7.02221 203.694 7.06609 201.808 7.06609ZM201.326 46.1711C201.326 46.4344 201.37 46.6978 201.414 46.9611H207.772C207.772 46.7855 207.772 46.5661 207.772 46.3905C205.624 46.1272 203.475 45.6005 201.37 46.1711H201.326ZM207.729 4.34499C207.729 4.16944 207.729 3.99388 207.729 3.81832H201.633C201.633 3.99388 201.633 4.16944 201.633 4.34499H207.685H207.729Z" fill="white" stroke="#020D2D" stroke-miterlimit="10"/>
<path d="M376.874 32.6972C375.12 33.3994 374.418 32.5656 373.848 31.2489C372.62 28.44 370.647 26.3772 367.796 25.2361C365.735 24.4022 365.165 24.7972 365.121 27.0356C365.121 32.5217 365.121 38.0078 365.121 43.4939C365.121 44.8545 365.604 45.2495 366.875 45.3372C371.261 45.5128 374.988 43.845 377.839 40.7289C380.47 37.8322 382.575 34.4528 384.987 31.3367C385.557 30.6345 386.478 30.1956 387.224 29.625C387.575 30.4589 388.232 31.2928 388.232 32.1706C388.32 36.9983 388.232 41.8261 388.232 46.6539C388.232 47.8828 387.882 48.585 386.522 48.585C373.015 48.585 359.464 48.5411 345.957 48.4972C345.825 48.4972 345.694 48.4095 345.562 48.3656C344.861 45.6883 344.948 45.6006 347.623 45.2495C351.263 44.8106 351.965 44.3278 352.009 40.5972C352.184 29.7567 352.228 18.96 352.14 8.11944C352.096 3.95 351.132 3.29167 346.878 3.16001C346.439 3.16001 346.045 3.11611 345.474 3.07222V0H387.531C387.531 1.40444 387.531 2.80889 387.531 4.25723C387.531 8.33889 387.531 12.4644 387.531 16.5461C387.531 17.2045 387.048 17.8628 386.829 18.565C386.171 18.0822 385.338 17.775 384.899 17.1606C382.444 13.9128 380.207 10.4895 377.663 7.32945C374.55 3.51112 370.34 2.54557 365.428 3.46723V21.3739C367.709 21.6811 369.463 20.7156 370.778 19.2672C372.138 17.775 373.103 15.9317 374.374 14.3078C374.725 13.825 375.471 13.5617 376.085 13.4739C376.348 13.4739 376.962 14.22 376.962 14.615C377.006 20.6717 376.962 26.7283 376.962 32.6972H376.874Z" fill="white" stroke="#020D2D" stroke-miterlimit="10"/>
<path d="M273.071 2.19443V5.22278C272.545 5.31055 272.15 5.44222 271.756 5.44222C267.107 5.70555 266.055 6.6711 266.011 11.4989C265.967 19.6183 266.011 27.7378 266.011 35.8133C266.011 37.8322 266.011 39.9389 266.449 41.9139C267.063 44.8544 268.335 47.6633 271.624 48.3217C275.308 49.0678 278.728 47.9267 280.483 44.5472C282.018 41.5628 283.202 38.1394 283.465 34.8478C283.991 28.0889 283.903 21.2861 283.772 14.4833C283.64 9.12888 281.754 6.89054 276.843 5.0911C276.404 2.23832 276.448 2.06277 279.079 2.01888C283.377 1.97499 287.675 1.97499 292.016 2.01888C292.543 2.01888 293.551 2.67722 293.507 2.98444C293.463 3.81833 293.156 5.0911 292.63 5.31054C288.727 6.84666 287.28 10.0067 287.105 13.7811C286.841 19.5306 287.105 25.3239 286.666 31.0733C286.359 35.1111 285.614 39.1928 284.43 43.055C283.07 47.5755 279.737 50.56 275.089 51.3939C271.712 52.0083 268.116 52.14 264.695 51.7889C260.134 51.2622 256.845 48.4094 255.31 44.1522C254.17 41.0361 253.381 37.6567 253.205 34.365C252.854 27.7378 253.118 21.0667 253.03 14.4394C253.03 12.4644 252.811 10.5333 252.591 8.55832C252.416 6.6711 251.407 5.66166 249.434 5.61777C248.688 5.61777 247.987 5.39833 247.241 5.35444C245.926 5.35444 245.75 4.52055 245.75 3.42333C245.75 2.15055 246.496 2.06277 247.46 2.06277C252.855 2.06277 258.249 2.06277 263.686 2.06277C266.756 2.06277 269.782 2.06277 273.027 2.06277L273.071 2.19443Z" fill="white" stroke="#020D2D" stroke-miterlimit="10"/>
<path d="M121.818 47.4V50.3845H94.9795C94.4094 48.4973 94.5848 47.4001 96.9091 47.0928C100.067 46.6978 100.549 45.6884 99.628 42.6162C98.6047 39.2806 96.3682 37.6128 92.9183 37.6128C90.8133 37.6128 88.6645 37.6128 86.5595 37.6128C85.1561 37.6128 84.6299 38.1834 84.6737 39.6317C84.7614 44.0645 86.2963 46.1712 90.4186 47.2684C91.9974 47.7073 92.0412 47.7951 91.6466 50.4284H72.877C72.3068 48.8484 72.3946 47.6634 74.1926 46.9612C76.6046 45.9956 78.3149 44.1962 79.3235 41.8262C84.0598 30.4151 88.796 19.0039 93.4884 7.59283C94.2339 5.83728 94.8479 4.03783 95.6811 2.32616C95.9881 1.66783 96.6898 1.22894 97.216 0.702271C97.7861 1.27283 98.6632 1.71171 98.9263 2.41393C101.908 9.87505 104.803 17.38 107.785 24.8412C109.89 30.1956 112.126 35.5501 114.188 40.9484C115.547 44.5912 117.652 47.1806 121.95 47.4878L121.818 47.4ZM85.8139 32.7412H96.2951C94.5848 28.3523 92.9622 24.1828 91.3396 20.0134C91.1203 20.0134 90.9449 20.0573 90.7256 20.1012C89.1469 24.2267 87.5681 28.3084 85.8578 32.7851L85.8139 32.7412Z" fill="white" stroke="#020D2D" stroke-miterlimit="10"/>
<path d="M435.946 49.3311H393.67C393.261 47.4585 393.963 46.3905 395.775 46.1272C399.327 45.6005 400.073 44.9422 400.117 41.3872C400.117 30.1955 400.073 19.0038 399.941 7.85607C399.941 5.22274 398.933 4.38885 396.345 4.12551C395.424 4.03774 394.46 3.94995 393.451 3.81829V1.0094H420.07C420.772 3.07218 420.421 4.03774 418.185 4.12551C414.676 4.30107 413.887 5.04717 413.492 8.60217C413.229 10.9722 413.185 13.4299 413.185 15.7999C413.185 25.1483 413.185 34.4966 413.141 43.8888C413.141 45.7322 413.712 46.3466 415.466 46.3466C419.588 46.3466 423.096 44.7666 425.815 41.8261C428.315 39.105 430.376 35.9888 432.613 33.0044C433.007 32.4777 433.227 31.7755 433.665 31.3366C434.016 30.9855 434.718 30.6344 435.156 30.7222C435.507 30.8099 435.902 31.5561 435.902 32.0388C435.946 37.7444 435.902 43.4061 435.902 49.3311H435.946ZM402.88 7.3294C402.704 7.54884 402.573 7.76829 402.397 7.98773C402.967 8.33884 403.581 8.99718 404.064 8.95329C405.467 8.77774 407.484 9.91884 408.23 7.3294H402.88ZM405.116 43.2744C405.642 43.2744 406.169 43.4061 406.651 43.2744C407.09 43.0988 407.44 42.66 407.835 42.3527C407.397 42.0894 407.002 41.6505 406.563 41.5627C405.862 41.4311 405.072 41.4311 404.371 41.5627C403.757 41.6944 403.23 42.0894 402.66 42.3527C403.187 42.66 403.713 43.0111 404.283 43.2744C404.546 43.4061 404.853 43.2744 405.16 43.2744H405.116ZM405.204 38.9733C405.555 38.9733 405.949 39.0611 406.3 38.9733C406.826 38.7977 407.309 38.4466 407.791 38.1833C407.353 37.8322 406.914 37.3494 406.388 37.2177C405.555 37.0422 404.634 37.0422 403.8 37.1738C403.406 37.2177 403.099 37.7005 402.748 38.0077C403.143 38.3588 403.45 38.7538 403.932 38.9733C404.283 39.1488 404.809 38.9733 405.248 38.9733H405.204ZM407.835 12.8594C407.528 11.1916 406.3 10.8844 402.967 11.6305C403.274 13.2544 403.494 13.3422 407.835 12.8594ZM405.292 25.9822C405.642 25.9822 406.081 26.1138 406.388 25.9822C406.914 25.7627 407.353 25.4116 407.791 25.1044C407.353 24.8411 406.958 24.4022 406.476 24.3583C405.599 24.2266 404.721 24.2266 403.844 24.3583C403.494 24.4022 403.187 24.885 402.88 25.1922C403.187 25.4555 403.406 25.8505 403.757 25.9383C404.239 26.07 404.765 25.9383 405.292 25.9383V25.9822ZM405.423 33.0483C405.072 33.0483 404.678 32.9605 404.371 33.0483C403.844 33.2238 403.406 33.575 402.923 33.8383C403.406 34.1455 403.844 34.5844 404.371 34.6722C405.116 34.8038 405.949 34.8038 406.739 34.6722C407.177 34.5844 407.484 34.1016 407.879 33.7944C407.528 33.5311 407.177 33.2238 406.739 33.0922C406.344 32.9605 405.906 33.0922 405.467 33.0922L405.423 33.0483ZM405.423 17.6433L405.599 17.9944C406.344 17.5994 407.09 17.2483 407.835 16.8533C407.046 16.5022 406.213 16.1072 405.379 15.8877C404.897 15.7561 404.327 15.8 403.888 15.8877C403.581 15.9755 403.055 16.4583 403.099 16.6338C403.23 17.0288 403.581 17.4677 403.932 17.5994C404.371 17.775 404.941 17.5994 405.423 17.5994V17.6433ZM401.871 4.16939C401.871 4.38884 401.871 4.60829 401.871 4.78385H408.186C408.186 4.5644 408.186 4.34495 408.186 4.16939H401.871ZM405.072 30.1955C405.555 30.1955 406.125 30.3272 406.563 30.1955C407.046 30.0638 407.44 29.7127 407.835 29.4494C407.397 29.1861 407.046 28.7033 406.563 28.6594C405.642 28.5277 404.678 28.5716 403.757 28.6594C403.45 28.6594 403.143 29.0544 402.836 29.2738C403.143 29.5811 403.362 30.02 403.757 30.1955C404.107 30.3711 404.59 30.1955 405.028 30.1955H405.072ZM407.747 21.7688L407.967 20.9788C407.397 20.7155 406.826 20.2766 406.3 20.2766C405.204 20.2766 404.064 20.54 402.967 20.7155C403.187 21.0666 403.406 21.7249 403.669 21.7249C405.028 21.8127 406.388 21.7688 407.747 21.7688ZM408.23 46.1711C406.607 44.8983 403.45 45.0738 402.134 46.1711H408.23Z" fill="white" stroke="#020D2D" stroke-miterlimit="10"/>
<path d="M7.05192 50.7794C6.70109 49.1116 6.35025 47.795 8.76223 47.7511C12.7968 47.6633 13.7616 46.8294 13.937 42.66C14.1563 35.945 14.0686 29.23 14.1124 22.4711C14.1124 18.4772 14.2879 14.4833 14.0247 10.4894C13.7177 6.31998 13.3669 6.1883 9.28848 5.74942C8.63067 5.66164 7.97285 5.57387 7.22733 5.4422V2.54553H34.1099C34.1538 3.51109 34.1977 4.34498 34.2854 5.4422C33.0136 5.61776 31.7857 5.8372 30.6016 5.88109C28.979 5.96887 28.0142 6.75887 27.6634 8.29498C27.488 9.12887 27.2248 10.0066 27.2248 10.8844C27.2248 16.3705 27.2248 21.8128 27.2248 27.3428C27.6195 27.3428 27.8826 27.4305 28.0142 27.3428C33.0136 23.3489 37.7937 19.1794 40.6881 13.2983C41.2582 12.1133 41.6529 10.665 41.6529 9.34831C41.609 7.4172 40.5126 6.14442 38.4076 5.88109C35.6887 5.52998 35.6887 5.4422 36.3027 2.58942H60.5102C61.2557 5.22276 61.168 5.3983 58.5806 5.92497C54.5898 6.71497 51.1692 8.55831 48.231 11.3233C45.6875 13.7372 43.2316 16.2389 40.8196 18.8283C40.4249 19.2672 40.1618 20.3644 40.4249 20.8472C43.8456 27.0355 47.2662 33.2677 50.9499 39.2805C53.8443 44.0644 58.0982 47.0928 63.8869 47.9705V50.7794H35.1624C34.68 49.0678 34.5046 47.7511 36.9605 47.7072C38.7146 47.7072 38.8462 46.5222 38.3638 45.0739C36.5219 39.5878 33.2329 34.9355 29.8561 30.2833C27.9265 31.3366 27.0056 32.6972 27.2248 34.9355C27.4003 36.9544 27.2248 39.0172 27.2248 41.08C27.0933 46.3905 27.7949 47.2244 32.9259 48.0583V50.7794H7.13963H7.05192ZM18.6733 20.935C18.1032 20.935 17.4892 20.8472 16.9191 20.935C16.4367 21.0228 16.042 21.3739 15.6035 21.6372C16.042 21.9883 16.4367 22.5589 16.8752 22.6027C18.147 22.7344 19.4626 22.6905 20.7783 22.6027C21.1291 22.6027 21.4799 22.0761 21.7869 21.7689C21.4799 21.4616 21.173 21.0228 20.8221 20.935C20.1205 20.8033 19.3749 20.935 18.6733 20.935ZM18.4979 18.8722C18.5856 18.7405 18.6294 18.565 18.7171 18.4333C19.2872 18.4333 19.9012 18.565 20.4274 18.4333C20.9098 18.2577 21.3045 17.775 21.7431 17.4239C21.3045 17.1166 20.866 16.7216 20.3397 16.5461C19.8135 16.4144 19.1557 16.4144 18.6294 16.5461C17.6208 16.7655 16.656 17.1166 15.6473 17.4239C16.6121 17.9066 17.5331 18.3894 18.4979 18.8722ZM18.454 14.3077C19.6381 13.8689 21.6115 13.2983 21.5677 13.1228C21.173 11.2355 19.5065 12.2011 18.4101 12.1572C17.4454 12.1572 16.4806 12.7278 15.5158 13.035C16.4806 13.43 17.4015 13.825 18.454 14.3077ZM18.4101 36.735C18.4979 36.6033 18.5417 36.4278 18.6294 36.2961C19.3311 36.2961 20.0766 36.3839 20.7783 36.2961C21.173 36.2083 21.4799 35.7694 21.8308 35.5061C21.4799 35.1989 21.2168 34.76 20.8221 34.6722C20.1205 34.5405 19.3749 34.5405 18.6733 34.6722C17.6208 34.8039 16.6121 35.1111 15.6035 35.3305L18.454 36.7789L18.4101 36.735ZM18.454 41.0361C19.6381 40.5972 21.6115 40.0266 21.5677 39.8072C21.173 37.8761 19.5065 38.9294 18.4101 38.8416C17.4454 38.7977 16.4806 39.4122 15.5158 39.7194C16.4367 40.1583 17.4015 40.5533 18.454 41.0361ZM18.761 32.3022C19.7696 31.8194 20.7783 31.3805 21.7431 30.9416C20.7344 30.6783 19.7258 30.1516 18.6733 30.1516C17.6208 30.1516 16.0859 29.2739 15.6912 31.1172C15.6912 31.2928 17.4892 31.8194 18.7171 32.3022H18.761ZM18.761 45.2933C19.7696 44.7666 20.6467 44.3716 21.4799 43.9328C20.6029 43.6694 19.7258 43.2305 18.8487 43.2305C17.84 43.2305 16.8314 43.7133 15.8228 43.9766C16.7437 44.4155 17.6646 44.8105 18.761 45.2933ZM18.761 27.0794C19.6819 26.6844 20.6906 26.2894 21.6992 25.8944C20.6467 25.675 19.5942 25.28 18.5856 25.3239C17.6208 25.3239 16.656 25.8505 15.6473 26.1139C16.6121 26.4211 17.5331 26.7283 18.761 27.1233V27.0794ZM21.7431 8.73387C21.6115 8.51442 21.5238 8.25109 21.3922 8.03164C19.9012 8.03164 18.3663 7.98775 16.8752 8.03164C16.5244 8.03164 16.2174 8.5583 15.8666 8.82164C16.2174 9.08497 16.5683 9.52387 16.963 9.56775C18.1032 9.65553 19.2872 9.69942 20.4274 9.56775C20.866 9.52387 21.3045 8.9972 21.7431 8.68998V8.73387ZM16.1736 4.82775C18.8925 6.05664 20.7344 6.05664 22.0939 4.82775H16.1736ZM21.8746 48.1022C21.8746 47.8828 21.8746 47.6194 21.8746 47.4C19.6381 47.0489 17.4015 46.9611 15.2088 48.1022H21.9185H21.8746Z" fill="white" stroke="#020D2D" stroke-miterlimit="10"/>
</svg>
